<?xml version="1.0" encoding="UTF-8"?>
<!DOCTYPE svg PUBLIC "-//W3C//DTD SVG 1.1//EN" "http://www.w3.org/Graphics/SVG/1.1/DTD/svg11.dtd">
<svg xmlns="http://www.w3.org/2000/svg" version="1.1" width="100px" height="100px" style="shape-rendering:geometricPrecision; text-rendering:geometricPrecision; image-rendering:optimizeQuality; fill-rule:evenodd; clip-rule:evenodd" xmlns:xlink="http://www.w3.org/1999/xlink">
<g><path style="opacity:0.974" fill="#2eb4e9" d="M 46.5,10.5 C 39.8333,24.1667 33.1667,37.8333 26.5,51.5C 22.4976,56.5298 18.1643,60.5298 13.5,63.5C 22.5,46.1667 31.5,28.8333 40.5,11.5C 42.4352,10.8505 44.4352,10.5172 46.5,10.5 Z"/></g>
<g><path style="opacity:0.971" fill="#2cb2e6" d="M 46.5,10.5 C 47.5,10.5 48.5,10.5 49.5,10.5C 42.8983,22.7035 36.565,35.0369 30.5,47.5C 29.5,49.1667 28.1667,50.5 26.5,51.5C 33.1667,37.8333 39.8333,24.1667 46.5,10.5 Z"/></g>
<g><path style="opacity:0.966" fill="#29afe3" d="M 49.5,10.5 C 51.5,10.5 53.5,10.5 55.5,10.5C 50.339,21.4914 44.6723,32.1581 38.5,42.5C 37.8826,42.3893 37.3826,42.056 37,41.5C 34.9633,43.7059 32.7966,45.7059 30.5,47.5C 36.565,35.0369 42.8983,22.7035 49.5,10.5 Z"/></g>
<g><path style="opacity:0.967" fill="#26adde" d="M 55.5,10.5 C 56.7079,11.2341 58.0413,11.5674 59.5,11.5C 53.4837,22.868 47.4837,34.2013 41.5,45.5C 40.1667,44.8333 39.1667,43.8333 38.5,42.5C 44.6723,32.1581 50.339,21.4914 55.5,10.5 Z"/></g>
<g><path style="opacity:0.977" fill="#30b6ec" d="M 40.5,11.5 C 31.5,28.8333 22.5,46.1667 13.5,63.5C 12.596,62.791 12.2627,61.791 12.5,60.5C 21.3398,44.8224 29.6731,28.8224 37.5,12.5C 38.391,11.8902 39.391,11.5569 40.5,11.5 Z"/></g>
<g><path style="opacity:0.974" fill="#24abdb" d="M 59.5,11.5 C 60.1667,11.8333 60.8333,12.1667 61.5,12.5C 55.7683,24.2966 49.7683,35.9632 43.5,47.5C 42.5,47.1667 41.8333,46.5 41.5,45.5C 47.4837,34.2013 53.4837,22.868 59.5,11.5 Z"/></g>
<g><path style="opacity:0.985" fill="#31b6ee" d="M 37.5,12.5 C 29.6731,28.8224 21.3398,44.8224 12.5,60.5C 11.8333,60.5 11.5,60.1667 11.5,59.5C 20.0064,44.4893 28.0064,29.156 35.5,13.5C 35.8417,12.6618 36.5084,12.3284 37.5,12.5 Z"/></g>
<g><path style="opacity:0.976" fill="#22a9d8" d="M 61.5,12.5 C 62.609,12.5569 63.609,12.8902 64.5,13.5C 58.6726,25.824 52.3392,37.824 45.5,49.5C 44.5,49.1667 43.8333,48.5 43.5,47.5C 49.7683,35.9632 55.7683,24.2966 61.5,12.5 Z"/></g>
<g><path style="opacity:0.96" fill="#33b8f0" d="M 35.5,13.5 C 28.0064,29.156 20.0064,44.4893 11.5,59.5C 10.6864,54.8809 10.3531,50.2142 10.5,45.5C 15.0847,37.3316 19.4181,28.9983 23.5,20.5C 26.8792,17.1423 30.8792,14.809 35.5,13.5 Z"/></g>
<g><path style="opacity:0.962" fill="#20a7d5" d="M 64.5,13.5 C 65.609,13.5569 66.609,13.8902 67.5,14.5C 61.1799,27.1401 54.8466,39.8068 48.5,52.5C 47.1667,51.8333 46.1667,50.8333 45.5,49.5C 52.3392,37.824 58.6726,25.824 64.5,13.5 Z"/></g>
<g><path style="opacity:0.973" fill="#1da4d1" d="M 67.5,14.5 C 69.3885,15.604 71.0552,16.9373 72.5,18.5C 65.8169,31.2012 59.1503,43.8679 52.5,56.5C 50.8333,55.5 49.5,54.1667 48.5,52.5C 54.8466,39.8068 61.1799,27.1401 67.5,14.5 Z"/></g>
<g><path style="opacity:0.96" fill="#1aa1cc" d="M 72.5,18.5 C 74.4044,18.7376 75.7377,19.7376 76.5,21.5C 70.9152,31.6688 65.5818,42.0021 60.5,52.5C 59.0401,54.4628 57.3734,56.2962 55.5,58C 54.0024,58.5847 53.0024,58.0847 52.5,56.5C 59.1503,43.8679 65.8169,31.2012 72.5,18.5 Z"/></g>
<g><path style="opacity:0.775" fill="#35baf4" d="M 23.5,20.5 C 19.4181,28.9983 15.0847,37.3316 10.5,45.5C 11.4368,35.2896 15.7702,26.9563 23.5,20.5 Z"/></g>
<g><path style="opacity:0.938" fill="#179fc8" d="M 76.5,21.5 C 77.5,21.8333 78.1667,22.5 78.5,23.5C 74.3255,30.5157 70.6588,37.849 67.5,45.5C 65.5,48.1667 63.1667,50.5 60.5,52.5C 65.5818,42.0021 70.9152,31.6688 76.5,21.5 Z"/></g>
<g><path style="opacity:0.913" fill="#159dc6" d="M 78.5,23.5 C 79.9063,23.9731 80.573,24.9731 80.5,26.5C 78.5617,30.0432 76.8951,33.7099 75.5,37.5C 73.1667,40.5 70.5,43.1667 67.5,45.5C 70.6588,37.849 74.3255,30.5157 78.5,23.5 Z"/></g>
<g><path style="opacity:0.819" fill="#139bc3" d="M 80.5,26.5 C 81.8366,27.3149 82.8366,28.4815 83.5,30C 80.9638,32.705 78.2971,35.205 75.5,37.5C 76.8951,33.7099 78.5617,30.0432 80.5,26.5 Z"/></g>
<g><path style="opacity:0.935" fill="#fefffe" d="M 84.5,34.5 C 86.5113,36.667 87.6779,39.3337 88,42.5C 89.5239,52.4042 87.8572,61.7375 83,70.5C 80.9875,73.8458 78.3208,76.5125 75,78.5C 68.8766,73.3787 63.0433,67.8787 57.5,62C 66.7023,52.965 75.7023,43.7984 84.5,34.5 Z"/></g>
<g><path style="opacity:0.893" fill="#fefffe" d="M 36.5,47.5 C 48.4135,57.9101 59.9135,68.9101 71,80.5C 71.6172,81.4491 71.4506,82.2825 70.5,83C 50.565,92.9164 33.065,89.7497 18,73.5C 16.7107,71.9452 16.044,70.2785 16,68.5C 23.0359,61.6315 29.8693,54.6315 36.5,47.5 Z M 31.5,63.5 C 32.8333,63.5 34.1667,63.5 35.5,63.5C 35.5,64.8333 35.5,66.1667 35.5,67.5C 34.1667,67.5 32.8333,67.5 31.5,67.5C 31.5,66.1667 31.5,64.8333 31.5,63.5 Z M 38.5,63.5 C 40.1667,63.5 41.8333,63.5 43.5,63.5C 43.5,64.8333 43.5,66.1667 43.5,67.5C 41.8333,67.5 40.1667,67.5 38.5,67.5C 38.5,66.1667 38.5,64.8333 38.5,63.5 Z M 31.5,70.5 C 32.8333,70.5 34.1667,70.5 35.5,70.5C 35.5,71.8333 35.5,73.1667 35.5,74.5C 34.1667,74.5 32.8333,74.5 31.5,74.5C 31.5,73.1667 31.5,71.8333 31.5,70.5 Z M 38.5,70.5 C 40.1667,70.5 41.8333,70.5 43.5,70.5C 43.5,71.8333 43.5,73.1667 43.5,74.5C 41.8333,74.5 40.1667,74.5 38.5,74.5C 38.5,73.1667 38.5,71.8333 38.5,70.5 Z"/></g>
</svg>
